<?xml version="1.0" encoding="UTF-8" standalone="no"?>
<!-- Created with Inkscape (http://www.inkscape.org/) -->

<svg
   xmlns:dc="http://purl.org/dc/elements/1.1/"
   xmlns:cc="http://creativecommons.org/ns#"
   xmlns:rdf="http://www.w3.org/1999/02/22-rdf-syntax-ns#"
   xmlns:svg="http://www.w3.org/2000/svg"
   xmlns="http://www.w3.org/2000/svg"
   xmlns:xlink="http://www.w3.org/1999/xlink"
   xmlns:sodipodi="http://sodipodi.sourceforge.net/DTD/sodipodi-0.dtd"
   xmlns:inkscape="http://www.inkscape.org/namespaces/inkscape"
   version="1.0"
   width="284.69528"
   height="284.69528"
   viewBox="0 0 81.3327 81.331746"
   id="Layer_1"
   xml:space="preserve"
   sodipodi:docname="icon.svg"
   inkscape:version="0.92.2 (5c3e80d, 2017-08-06)"><metadata
     id="metadata821"><rdf:RDF><cc:Work
         rdf:about=""><dc:format>image/svg+xml</dc:format><dc:type
           rdf:resource="http://purl.org/dc/dcmitype/StillImage" /><dc:title></dc:title></cc:Work></rdf:RDF></metadata><sodipodi:namedview
     pagecolor="#ffffff"
     bordercolor="#666666"
     borderopacity="1"
     objecttolerance="10"
     gridtolerance="10"
     guidetolerance="10"
     inkscape:pageopacity="0"
     inkscape:pageshadow="2"
     inkscape:window-width="2560"
     inkscape:window-height="1377"
     id="namedview819"
     showgrid="false"
     fit-margin-top="0"
     fit-margin-left="0"
     fit-margin-right="0"
     fit-margin-bottom="0"
     inkscape:zoom="2.673464"
     inkscape:cx="217.51298"
     inkscape:cy="163.91659"
     inkscape:window-x="-8"
     inkscape:window-y="-8"
     inkscape:window-maximized="1"
     inkscape:current-layer="Layer_1" /><defs
     id="defs8"><linearGradient
       inkscape:collect="always"
       id="linearGradient841"><stop
         style="stop-color:#f6f6f6;stop-opacity:1"
         offset="0"
         id="stop837" /><stop
         style="stop-color:#ffffff;stop-opacity:1"
         offset="1"
         id="stop839" /></linearGradient><linearGradient
       inkscape:collect="always"
       xlink:href="#linearGradient841"
       id="linearGradient849"
       x1="9.5790362"
       y1="38.990708"
       x2="77.089271"
       y2="38.990708"
       gradientUnits="userSpaceOnUse" /></defs><path
     style="fill:url(#linearGradient849);stroke:#000000;stroke-width:0.28568333px;stroke-linecap:butt;stroke-linejoin:miter;stroke-opacity:1;fill-opacity:1"
     d="m 40.71323,14.43857 -26.501,8.655569 -4.4880731,9.403581 0.7480121,10.685885 4.167496,6.838968 2.722044,4.309485 1.231734,1.354036 -4.060637,7.693838 11.220181,-5.236084 8.655569,1.8166 12.502488,1.496024 10.579029,-2.778331 12.395628,-7.480121 5.556661,-8.228132 1.496024,-7.159544 -5.663521,-9.937875 -10.365309,-6.62525 -11.540758,-3.526342 z"
     id="path835"
     inkscape:connector-curvature="0" /><g
     transform="matrix(0.86447329,0,0,0.86447329,3.4194838,13.996599)"
     id="g3"><path
       d="m 48.699579,-0.07964682 c 0,0 14.045267,3.68598632 14.917197,1.27450632 C 66.116601,4.1187193 79.530329,13.872207 81.237321,13.54271 81.416181,16.861934 86.135752,23.229383 85.703,27.862 85.294569,32.234257 82.086797,39.970595 83.726066,43.112025 82.341437,40.096638 68.126187,49.184938 61.678951,53.884911 56.763871,54.131855 50.30863,56.876311 45.673,55.724 42.98401,55.055579 35.166069,55.038111 36.882065,58.037685 33.885669,55.532304 31.114659,53.544288 26.539,52.34 23.620473,53.103293 19.072905,54.948975 18.896615,56.721086 8.163365,59.818222 0.00693817,64.547204 0,64.542 c 0,0 4.0969208,-4.112475 8.6697493,-7.55908 1.0274969,2.312055 5.8387757,-4.336094 4.9593697,-7.192031 C 14.871873,49.943423 15.778146,48.457461 16.128,46.659 12.003233,43.215618 8.036502,35.128373 5.2427696,36.063873 7.4806425,35.050859 6.5695974,30.889669 5.643,27.862 3.7398653,21.643483 11.784248,11.908799 9.7680661,6.795685 10.785718,10.32805 23.45103,7.3845482 26.142421,3.1286664 29.40361,4.3309037 39.997349,2.4554497 42.566774,-1.4336427 M 45.673,2.22 C 42.069095,1.8851648 37.003213,3.7086451 38.726136,6.0193016 31.483516,2.2993552 9.2538411,11.888339 13.257855,16.979259 7.5913374,17.859078 7.7811367,23.297278 7.862,27.863 c 0.049325,2.785021 3.406282,9.058018 3.656257,7.073649 0.433481,4.847228 2.2588,7.177084 5.953743,9.956351 l 1.104,0.841 -0.271,1.36 c -0.445,2.23 -1.217,4.272 -2.294,6.069 -0.341,0.567 -0.717,1.127 -1.12,1.674 3.625,-1.646 7.421,-3.276 10.866,-4.573 l 0.785,-0.296 0.785,0.298 c 3.47485,2.118829 8.087773,0.6839 8.037434,-1.459318 -0.209042,3.607638 5.858153,4.241015 10.308566,4.698318 2.237352,0.229899 5.377296,0.174903 5.299657,-2.316328 6.737599,3.128261 18.970915,-1.821369 23.221497,-10.307494 C 77.024698,43.767587 82.850683,34.51801 83.484,27.862 83.814424,24.389325 80.860186,19.563655 78.366313,21.307963 81.426001,17.96155 68.98702,6.3128523 65.221824,9.1458659 66.669548,5.5879421 53.156523,2.9152867 45.673,2.22 Z"
       id="path5"
       inkscape:connector-curvature="0"
       sodipodi:nodetypes="cccsccsccccccccscccsccsccccccccccsccsccs" /></g><path
     style="fill:none;stroke:#000000;stroke-width:0.98389065;stroke-linecap:round;stroke-linejoin:round;stroke-miterlimit:4;stroke-dasharray:none;stroke-opacity:1"
     d="m 21.605727,28.171908 c 0.543337,-1.727167 0.822726,-3.670633 2.685249,-5.163942 0.558644,2.176478 0.739823,2.05216 2.160081,2.59277 1.420259,0.54061 3.087708,-1.132875 3.00386,-2.110801 0.734427,1.091365 1.468855,1.037109 2.203282,0.481967"
     id="path825"
     inkscape:connector-curvature="0"
     sodipodi:nodetypes="cczcc" /><path
     style="fill:none;stroke:#000000;stroke-width:0.98389065;stroke-linecap:round;stroke-linejoin:round;stroke-miterlimit:4;stroke-dasharray:none;stroke-opacity:1"
     d="m 47.457004,38.175405 c 1.785223,-0.458812 3.881714,0.149578 4.819923,-3.213282 -0.08092,1.849845 0.277321,3.260535 1.363211,3.943574"
     id="path827"
     inkscape:connector-curvature="0"
     sodipodi:nodetypes="ccc" /><path
     style="fill:none;stroke:#000000;stroke-width:0.98389065;stroke-linecap:round;stroke-linejoin:round;stroke-miterlimit:4;stroke-dasharray:none;stroke-opacity:1"
     d="m 22.500811,42.906352 c 0.832875,-1.292794 3.122556,-1.872043 2.891805,-4.681974 1.622027,0.378048 1.31632,1.857658 1.790166,2.891809 1.936495,0.932816 1.170756,-1.940536 1.927872,-3.029514 0.332215,1.954256 1.112112,1.222424 1.790166,1.10164 0.613263,1.383449 1.952362,-0.841924 2.409838,-1.239344 -0.31633,2.269521 2.132164,2.498525 2.960661,2.754101"
     id="path829"
     inkscape:connector-curvature="0"
     sodipodi:nodetypes="ccccccc" /><path
     style="fill:none;stroke:#000000;stroke-width:0.98389065;stroke-linecap:round;stroke-linejoin:round;stroke-miterlimit:4;stroke-dasharray:none;stroke-opacity:1"
     d="m 42.330342,49.585049 c 2.388093,-0.0447 3.522321,-1.34326 4.268857,-3.029513 1.092476,1.331113 2.261293,2.471368 3.718038,2.891808 1.414261,-0.269843 2.35282,-1.491089 4.268858,-0.757378 0.140989,1.317373 1.0147,1.608934 2.065577,1.652461"
     id="path831"
     inkscape:connector-curvature="0"
     sodipodi:nodetypes="ccccc" /><path
     style="fill:none;stroke:#000000;stroke-width:0.98389065;stroke-linecap:round;stroke-linejoin:round;stroke-miterlimit:4;stroke-dasharray:none;stroke-opacity:1"
     d="m 43.431982,26.588299 c 1.224893,-0.182771 2.269906,-1.354879 3.23607,-2.960659 0.198269,0.914423 0.449891,1.704359 1.03279,1.721313 1.052431,0.222895 1.576887,-0.610163 2.272134,-1.10164 0.446389,0.35781 1.219756,1.003413 2.245046,0.319203 1.262296,0.534935 1.794302,0.575863 3.056598,-0.181498 0.388947,0.491538 0.42625,1.334721 1.528003,1.113453"
     id="path833"
     inkscape:connector-curvature="0"
     sodipodi:nodetypes="ccccccc" /></svg>